<?xml version="1.0" standalone="no"?>
<!DOCTYPE svg PUBLIC "-//W3C//DTD SVG 20010904//EN"
 "http://www.w3.org/TR/2001/REC-SVG-20010904/DTD/svg10.dtd">
<svg version="1.0" xmlns="http://www.w3.org/2000/svg"
 width="161.000000pt" height="161.000000pt" viewBox="0 0 161.000000 161.000000"
 preserveAspectRatio="xMidYMid meet">
<metadata>
Created by potrace 1.11, written by Peter Selinger 2001-2013
</metadata>
<g transform="translate(0.000000,161.000000) scale(0.100000,-0.100000)"
fill="#000000" stroke="none">
<path d="M500 1385 c0 -7 109 -300 136 -364 l14 -34 22 29 c25 33 169 206 178
214 16 14 72 91 69 94 -2 2 -20 6 -39 9 -93 14 -238 37 -260 42 -55 11 -120
17 -120 10z m195 -90 c22 -3 49 -7 60 -9 11 -3 26 -5 33 -5 11 -1 -30 -66 -58
-91 -3 -3 -18 -20 -33 -38 l-27 -33 -11 28 c-34 89 -59 156 -59 160 0 3 12 2
28 -1 15 -3 45 -8 67 -11z"/>
<path d="M907 865 c-82 -67 -148 -127 -148 -131 0 -5 8 -17 16 -27 17 -19 33
-14 70 20 11 10 68 57 126 105 136 111 134 110 106 136 l-22 21 -148 -124z"/>
<path d="M1313 958 l-22 -11 39 -76 38 -77 -30 -13 c-17 -8 -50 -25 -74 -38
-43 -24 -44 -25 -29 -53 l14 -28 75 37 74 38 38 -72 c29 -56 42 -71 55 -68 40
11 41 28 4 98 -19 37 -35 69 -35 71 0 2 32 20 70 39 39 19 70 38 70 41 0 5
-19 45 -25 52 -2 2 -34 -13 -73 -32 -38 -20 -71 -36 -74 -36 -2 0 -20 31 -39
70 -35 72 -39 76 -76 58z"/>
<path d="M136 935 c-43 -15 -91 -56 -112 -97 -21 -40 -18 -131 6 -178 29 -57
100 -100 164 -100 134 0 227 122 190 249 -30 103 -145 162 -248 126z m132 -75
c69 -42 77 -137 16 -197 -27 -28 -39 -33 -82 -33 -106 0 -165 108 -107 197 34
51 117 67 173 33z"/>
<path d="M27 392 c-15 -3 -17 -13 -15 -75 l3 -72 38 1 c63 2 66 3 77 25 9 16
8 24 -3 37 -12 13 -13 22 -6 35 7 12 7 22 -1 31 -11 14 -62 24 -93 18z m60
-45 c-4 -14 -35 -18 -43 -5 -4 6 -1 14 6 18 16 10 42 1 37 -13z m6 -46 c5 -1
7 -6 5 -13 -6 -16 -58 -19 -58 -3 0 17 9 23 28 20 9 -2 21 -4 25 -4z"/>
<path d="M223 389 c-26 -10 -50 -55 -45 -86 2 -13 15 -32 29 -43 51 -40 127
-3 125 61 -1 54 -56 88 -109 68z m65 -42 c18 -14 15 -41 -8 -62 -18 -17 -21
-17 -45 -1 -29 19 -31 33 -10 63 15 22 34 22 63 0z"/>
<path d="M399 391 c-10 -4 -14 -25 -14 -71 0 -36 3 -66 8 -67 19 -7 27 -1 27
17 0 14 7 20 21 20 36 0 59 19 59 49 0 16 -6 33 -12 39 -16 12 -71 20 -89 13z
m66 -51 c0 -8 -10 -16 -22 -18 -18 -3 -23 2 -23 18 0 16 5 21 23 18 12 -2 22
-10 22 -18z"/>
<path d="M653 393 c-13 -2 -31 -15 -42 -29 -24 -30 -31 -30 -31 1 0 17 -5 25
-18 25 -15 0 -17 -9 -16 -66 2 -65 18 -105 29 -71 17 55 15 54 41 24 21 -25
64 -45 64 -30 0 3 -14 23 -31 44 -30 39 -31 40 -13 57 20 18 49 53 43 51 -2
-1 -14 -4 -26 -6z"/>
<path d="M779 388 c-9 -7 -27 -41 -42 -75 -21 -50 -23 -62 -12 -67 8 -3 19 3
25 14 14 27 66 27 75 1 3 -11 11 -18 18 -17 22 3 19 14 -22 109 -11 26 -22 47
-24 47 -2 0 -10 -6 -18 -12z m21 -70 c0 -5 -6 -8 -14 -8 -9 0 -12 7 -9 21 4
16 8 17 14 7 5 -7 9 -16 9 -20z"/>
<path d="M929 395 c0 0 -2 -22 -4 -49 -3 -26 -9 -54 -15 -61 -6 -7 -13 -25
-16 -39 -3 -21 0 -26 16 -26 11 0 20 6 20 14 0 17 82 16 88 -2 8 -25 32 -12
32 18 0 17 -4 30 -8 30 -5 0 -8 25 -7 55 0 32 -3 55 -9 56 -9 0 -93 4 -97 4z
m69 -77 c-2 -35 -7 -43 -23 -43 -13 0 -20 6 -19 18 3 63 4 67 25 67 18 0 20
-5 17 -42z"/>
<path d="M1470 390 c-12 -6 -15 -24 -14 -72 2 -78 1 -75 19 -75 11 0 15 12 15
46 l0 46 19 -28 18 -28 22 27 21 27 0 -41 c0 -43 16 -65 27 -36 6 16 6 33 4
109 -1 17 -7 25 -19 25 -10 0 -25 -11 -32 -25 -17 -32 -26 -32 -45 5 -9 17
-17 30 -18 30 -1 0 -9 -5 -17 -10z"/>
<path d="M1099 388 c-6 -12 -3 -141 3 -144 9 -6 44 28 70 66 l17 25 0 -47 c1
-37 4 -46 17 -44 13 2 17 16 18 72 1 87 -18 97 -61 33 l-28 -43 -3 42 c-2 29
-8 42 -18 42 -8 0 -15 -1 -15 -2z"/>
<path d="M1270 385 c0 -2 11 -24 25 -49 28 -51 32 -71 11 -63 -8 3 -20 0 -26
-8 -15 -18 21 -30 47 -17 15 8 83 122 83 138 0 2 -8 4 -19 4 -12 0 -23 -13
-33 -37 l-15 -38 -18 38 c-11 22 -26 37 -37 37 -10 0 -18 -2 -18 -5z"/>
</g>
</svg>
